<svg version="1.1" xmlns="http://www.w3.org/2000/svg" xmlns:xlink="http://www.w3.org/1999/xlink" width="2789" height="2789" viewBox="0,0,2789,2789"><g transform="translate(0,600)"><path d="M1960,545 C1960,399.667,1929.667,271.667,1869,161 C1869,161,1869,161,1869,161 C1808.333,51,1722,-34.667,1610,-96 C1610,-96,1610,-96,1610,-96 C1498,-156,1370.333,-186,1227,-186 C1227,-186,1227,-186,1227,-186 C1056.333,-186,905,-149,773,-75 C773,-75,773,-75,773,-75 C641,-0.333,539.333,104.667,468,240 C396.667,375.333,361,529.667,361,703 C361,703,361,703,361,703 C361,941.667,428,1127.333,562,1260 C562,1260,562,1260,562,1260 C695.333,1393.333,883,1460,1125,1460 C1125,1460,1125,1460,1125,1460 C1287.667,1460,1433,1432,1561,1376 C1561,1376,1630,1162,1630,1162 C1630,1162,1561,1243,1561,1243 C1561,1243,1561,1243,1561,1243 C1408.333,1300.333,1263,1329,1125,1329 C1125,1329,1125,1329,1125,1329 C923,1329,768.333,1274.333,661,1165 C553.667,1055.667,500,899.333,500,696 C500,696,500,696,500,696 C500,546.667,529,414.333,587,299 C587,299,587,299,587,299 C645,185,729,97,839,35 C839,35,839,35,839,35 C950.333,-26.333,1079.667,-57,1227,-57 C1227,-57,1227,-57,1227,-57 C1345.667,-57,1450.333,-32.667,1541,16 C1541,16,1541,16,1541,16 C1632.333,65.333,1702.333,135.333,1751,226 C1751,226,1751,226,1751,226 C1800.333,317.333,1825,423,1825,543 C1825,543,1825,543,1825,543 C1825,658.333,1806,751.333,1768,822 C1768,822,1768,822,1768,822 C1730,894,1680.667,930,1620,930 C1620,930,1620,930,1620,930 C1531.333,930,1487,870.667,1487,752 C1487,752,1487,730,1487,730 C1487,730,1685,266,1685,266 C1685,266,1535,300,1535,300 C1535,300,1535,300,1535,300 C1525.667,297.333,1499,284.667,1455,262 C1455,262,1455,262,1455,262 C1410.333,240,1377.667,227.667,1357,225 C1357,225,1357,225,1357,225 C1300.333,217,1249,213,1203,213 C1203,213,1203,213,1203,213 C1075,213,971.667,255.333,893,340 C814.333,424.667,775,535.333,775,672 C775,672,775,672,775,672 C775,790.667,803.333,883.333,860,950 C860,950,860,950,860,950 C916,1018.667,994,1053,1094,1053 C1094,1053,1094,1053,1094,1053 C1163.333,1053,1222.333,1036.667,1271,1004 C1319.667,971.333,1357.667,926,1385,868 C1385,868,1393,868,1393,868 C1393,868,1393,868,1393,868 C1399.667,920.667,1423,965,1463,1001 C1463,1001,1463,1001,1463,1001 C1501.667,1035.667,1550,1053,1608,1053 C1608,1053,1608,1053,1608,1053 C1677.333,1053,1738.667,1031.333,1792,988 C1845.333,944.667,1886.667,883.667,1916,805 C1916,805,1916,805,1916,805 C1945.333,724.333,1960,637.667,1960,545 C1960,545,1960,545,1960,545Z M926,676 C926,570.667,950.667,487.333,1000,426 C1000,426,1000,426,1000,426 C1049.333,366,1117,336,1203,336 C1203,336,1203,336,1203,336 C1257.667,336,1310,342.667,1360,356 C1360,356,1346,617,1346,617 C1346,617,1346,617,1346,617 C1334,825.667,1259,930,1121,930 C1121,930,1121,930,1121,930 C991,930,926,845.333,926,676 C926,676,926,676,926,676Z"/></g></svg>