<svg version="1.1" xmlns="http://www.w3.org/2000/svg" xmlns:xlink="http://www.w3.org/1999/xlink" width="2789" height="2789" viewBox="0,0,2789,2789"><g transform="translate(0,600)"><path d="M824,-20 C824,-20,824,-20,824,-20 C957,-20,1063,11,1141,73 C1219,135,1258,221,1258,330 C1258,330,1258,330,1258,330 C1258,403,1236,468,1191,527 C1191,527,1191,527,1191,527 C1146,586,1074,640,977,689 C977,689,977,689,977,689 C1096,746,1180,805,1230,867 C1230,867,1230,867,1230,867 C1280,930,1305,1002,1305,1084 C1305,1084,1305,1084,1305,1084 C1305,1205,1263,1302,1178,1374 C1178,1374,1178,1374,1178,1374 C1093,1447,977,1483,830,1483 C830,1483,830,1483,830,1483 C673,1483,553,1449,470,1380 C470,1380,470,1380,470,1380 C386,1312,344,1215,344,1090 C344,1090,344,1090,344,1090 C344,923,446,792,650,699 C650,699,650,699,650,699 C557,647,491,591,452,530 C452,530,452,530,452,530 C412,470,392,403,392,328 C392,328,392,328,392,328 C392,221,431,137,510,74 C510,74,510,74,510,74 C587,11,692,-20,824,-20Z M508,1094 C508,1094,508,1094,508,1094 C508,1173,536,1236,592,1281 C592,1281,592,1281,592,1281 C647,1326,725,1348,826,1348 C826,1348,826,1348,826,1348 C926,1348,1003,1325,1058,1278 C1058,1278,1058,1278,1058,1278 C1113,1231,1141,1167,1141,1086 C1141,1086,1141,1086,1141,1086 C1141,1021,1115,964,1063,913 C1063,913,1063,913,1063,913 C1010,862,920,814,791,767 C791,767,791,767,791,767 C692,810,620,857,575,908 C575,908,575,908,575,908 C530,959,508,1021,508,1094Z M1022,174 C973,135,906,115,822,115 C738,115,673,135,626,175 C626,175,626,175,626,175 C579,215,555,268,555,335 C555,335,555,335,555,335 C555,396,575,448,614,493 C614,493,614,493,614,493 C653,537,725,581,832,625 C832,625,832,625,832,625 C927,585,995,542,1035,496 C1035,496,1035,496,1035,496 C1074,449,1094,396,1094,335 C1094,335,1094,335,1094,335 C1094,268,1070,214,1022,174 C1022,174,1022,174,1022,174Z"/></g></svg>