<svg version="1.1" xmlns="http://www.w3.org/2000/svg" xmlns:xlink="http://www.w3.org/1999/xlink" width="2789" height="2789" viewBox="0,0,2789,2789"><g transform="translate(0,600)"><path d="M1246,345 C1246,345,1246,345,1246,345 C1246,438,1220,515,1168,574 C1168,574,1168,574,1168,574 C1115,633,1040,673,945,693 C945,693,945,693,945,693 C945,693,945,701,945,701 C1062,716,1149,754,1206,813 C1263,872,1291,951,1291,1049 C1291,1049,1291,1049,1291,1049 C1291,1188,1243,1295,1146,1370 C1146,1370,1146,1370,1146,1370 C1049,1445,911,1483,734,1483 C734,1483,734,1483,734,1483 C657,1483,586,1477,522,1465 C522,1465,522,1465,522,1465 C460,1454,397,1434,334,1404 C334,1404,334,1404,334,1404 C334,1404,299,1206,299,1206 C308,1211,331,1223,367,1242 C403,1262,435,1278,463,1291 C491,1304,516,1312,537,1317 C537,1317,537,1317,537,1317 C606,1334,674,1342,740,1342 C740,1342,740,1342,740,1342 C993,1342,1119,1243,1119,1045 C1119,1045,1119,1045,1119,1045 C1119,868,980,779,701,779 C701,779,701,779,701,779 C701,779,557,779,557,779 C557,779,557,636,557,636 C557,636,703,636,703,636 C817,636,907,611,974,560 C974,560,974,560,974,560 C1041,510,1074,440,1074,351 C1074,351,1074,351,1074,351 C1074,280,1050,224,1001,183 C952,142,886,122,801,122 C801,122,801,122,801,122 C738,122,678,131,620,148 C620,148,620,148,620,148 C564,165,499,197,426,244 C426,244,426,244,426,244 C426,244,255,138,255,138 C269,127,290,116,319,103 C347,90,372,80,393,72 C414,65,443,55,482,42 C520,30,543,23,550,20 C550,20,550,20,550,20 C627,-7,710,-20,797,-20 C797,-20,797,-20,797,-20 C939,-20,1049,12,1128,77 C1207,142,1246,231,1246,345Z"/></g></svg>