<svg version="1.1" xmlns="http://www.w3.org/2000/svg" xmlns:xlink="http://www.w3.org/1999/xlink" width="2789" height="2789" viewBox="0,0,2789,2789"><g transform="translate(0,600)"><path d="M1153,983 C1153,983,1301,1029,1301,1029 C1301,1029,1370,1134,1370,1134 C1370,1134,1153,1134,1153,1134 C1153,1134,1153,1470,1153,1470 C1153,1470,994,1401,994,1401 C994,1401,994,1134,994,1134 C994,1134,283,1134,283,1134 C283,1134,283,989,283,989 C283,989,977,0,977,0 C977,0,1118,75,1118,75 C1118,75,1153,983,1153,983Z M906,333 C906,333,449,983,449,983 C449,983,994,983,994,983 C994,983,994,497,994,497 C994,396,997,288,1004,174 C1004,174,1004,174,1004,174 C1004,174,996,174,996,174 C964,238,934,291,906,333 C906,333,906,333,906,333Z"/></g></svg>