<svg version="1.1" xmlns="http://www.w3.org/2000/svg" xmlns:xlink="http://www.w3.org/1999/xlink" width="2789" height="2789" viewBox="0,0,2789,2789"><g transform="translate(0,600)"><path d="M1301,625 C1301,625,1301,625,1301,625 C1301,1197,1080,1483,637,1483 C637,1483,637,1483,637,1483 C560,1483,499,1476,453,1463 C453,1463,453,1463,453,1463 C453,1463,430,1280,430,1280 C441,1283,460,1291,488,1303 C516,1316,543,1326,568,1334 C593,1342,615,1346,635,1346 C635,1346,635,1346,635,1346 C795,1346,916,1296,998,1197 C998,1197,998,1197,998,1197 C1080,1097,1124,945,1131,742 C1131,742,1131,742,1131,742 C1131,742,1119,742,1119,742 C1082,797,1033,839,973,868 C973,868,973,868,973,868 C911,897,843,912,768,912 C768,912,768,912,768,912 C639,912,536,873,460,796 C460,796,460,796,460,796 C384,719,346,611,346,472 C346,472,346,472,346,472 C346,321,389,201,474,112 C474,112,474,112,474,112 C559,24,671,-20,809,-20 C809,-20,809,-20,809,-20 C908,-20,995,5,1070,56 C1070,56,1070,56,1070,56 C1143,107,1200,181,1241,279 C1241,279,1241,279,1241,279 C1281,377,1301,492,1301,625Z M809,122 C809,122,809,122,809,122 C714,122,640,153,588,214 C588,214,588,214,588,214 C536,275,510,360,510,470 C510,470,510,470,510,470 C510,565,534,641,582,696 C630,751,703,779,801,779 C801,779,801,779,801,779 C863,779,919,767,969,742 C969,742,969,742,969,742 C1021,717,1061,683,1089,641 C1089,641,1089,641,1089,641 C1118,598,1133,553,1133,507 C1133,507,1133,507,1133,507 C1133,438,1119,373,1092,313 C1092,313,1092,313,1092,313 C1065,254,1027,207,978,173 C978,173,978,173,978,173 C929,139,872,122,809,122Z"/></g></svg>