<svg version="1.1" xmlns="http://www.w3.org/2000/svg" xmlns:xlink="http://www.w3.org/1999/xlink" width="2789" height="2789" viewBox="0,0,2789,2789"><g transform="translate(0,600)"><path d="M1287,1289 C1287,1289,1295,1283,1295,1283 C1295,1283,1301,1483,1301,1483 C1301,1483,340,1483,340,1483 C340,1483,340,1340,340,1340 C340,1340,725,953,725,953 C846,830,924,745,957,699 C957,699,957,699,957,699 C994,648,1022,598,1041,551 C1060,504,1069,452,1069,396 C1069,396,1069,396,1069,396 C1069,318,1045,256,998,210 C998,210,998,210,998,210 C951,165,885,142,801,142 C801,142,801,142,801,142 C740,142,683,152,629,172 C629,172,629,172,629,172 C574,192,514,228,447,281 C447,281,447,281,447,281 C447,281,359,168,359,168 C494,56,641,0,799,0 C799,0,799,0,799,0 C936,0,1044,35,1122,105 C1122,105,1122,105,1122,105 C1200,176,1239,270,1239,389 C1239,389,1239,389,1239,389 C1239,481,1213,573,1161,664 C1161,664,1161,664,1161,664 C1110,754,1012,869,869,1008 C869,1008,869,1008,869,1008 C869,1008,549,1321,549,1321 C549,1321,549,1329,549,1329 C571,1334,600,1339,637,1345 C674,1351,735,1358,822,1365 C908,1373,979,1374,1034,1368 C1034,1368,1034,1368,1034,1368 C1071,1364,1105,1358,1137,1351 C1168,1344,1193,1336,1212,1328 C1230,1321,1246,1313,1259,1306 C1272,1299,1282,1294,1287,1289 C1287,1289,1287,1289,1287,1289Z"/></g></svg>