<svg version="1.1" xmlns="http://www.w3.org/2000/svg" xmlns:xlink="http://www.w3.org/1999/xlink" width="2789" height="2789" viewBox="0,0,2789,2789"><g transform="translate(0,600)"><path d="M812,1348 C812,1348,796,1456,796,1456 C796,1456,525,1462,525,1462 C525,1462,1131,153,1131,153 C1131,153,751,153,751,153 C751,153,334,153,334,153 C334,153,224,0,224,0 C530,35,771,52,948,52 C948,52,948,52,948,52 C1029,52,1100,48,1160,39 C1220,30,1259,22,1278,13 C1278,13,1278,13,1278,13 C1278,13,1307,0,1307,0 C1307,0,1307,133,1307,133 C1302,140,1294,151,1285,164 C1275,177,1256,206,1228,249 C1199,292,1172,336,1146,381 C1120,426,1091,482,1058,549 C1025,616,996,681,971,745 C971,745,971,745,971,745 C935,838,902,944,873,1063 C844,1182,823,1277,812,1348 C812,1348,812,1348,812,1348Z"/></g></svg>