<svg version="1.1" xmlns="http://www.w3.org/2000/svg" xmlns:xlink="http://www.w3.org/1999/xlink" width="2789" height="2789" viewBox="0,0,2789,2789"><g transform="translate(0,600)"><path d="M797,549 C797,549,797,549,797,549 C951,549,1072,587,1161,663 C1161,663,1161,663,1161,663 C1249,740,1293,844,1293,977 C1293,977,1293,977,1293,977 C1293,1128,1245,1247,1149,1333 C1149,1333,1149,1333,1149,1333 C1052,1419,919,1462,750,1462 C750,1462,750,1462,750,1462 C585,1462,460,1436,373,1383 C373,1383,373,1383,373,1383 C373,1383,494,1269,494,1269 C509,1279,516,1285,513,1286 C513,1286,513,1286,513,1286 C513,1286,547,1293,547,1293 C618,1310,686,1319,752,1319 C752,1319,752,1319,752,1319 C869,1319,961,1291,1026,1236 C1026,1236,1026,1236,1026,1236 C1091,1181,1123,1101,1123,996 C1123,996,1123,996,1123,996 C1123,792,998,690,748,690 C748,690,748,690,748,690 C687,690,602,700,494,719 C494,719,494,719,494,719 C494,719,408,664,408,664 C408,664,463,-20,463,-20 C463,-20,1138,9,1138,9 C1138,9,1190,133,1190,133 C1190,133,605,133,605,133 C605,133,568,572,568,572 C647,557,723,549,797,549Z"/></g></svg>