<svg version="1.1" xmlns="http://www.w3.org/2000/svg" xmlns:xlink="http://www.w3.org/1999/xlink" width="2789" height="2789" viewBox="0,0,2789,2789"><g transform="translate(0,600)"><path d="M897,774 C897,774,897,774,897,774 C903,877,916,986,935,1101 C954,1216,972,1305,988,1368 C988,1368,988,1368,988,1368 C988,1368,1013,1462,1013,1462 C1013,1462,793,1456,793,1456 C793,1456,793,414,793,414 C793,332,796,250,801,168 C801,168,801,168,801,168 C787,183,771,197,754,212 C754,212,754,212,754,212 C745,220,666,285,516,407 C516,407,516,407,516,407 C516,407,428,293,428,293 C428,293,815,-6,815,-6 C815,-6,955,-6,955,-6 C953,5,950,19,947,38 C944,57,938,98,929,159 C920,220,913,279,908,335 C903,391,899,461,895,546 C890,631,891,707,897,774Z"/></g></svg>