<svg version="1.1" xmlns="http://www.w3.org/2000/svg" xmlns:xlink="http://www.w3.org/1999/xlink" width="2789" height="2789" viewBox="0,0,2789,2789"><g transform="translate(0,600)"><path d="M1309,732 C1309,732,1309,732,1309,732 C1309,984,1269,1173,1190,1298 C1190,1298,1190,1298,1190,1298 C1110,1423,988,1485,824,1485 C824,1485,824,1485,824,1485 C667,1485,547,1421,465,1293 C465,1293,465,1293,465,1293 C383,1166,342,979,342,732 C342,732,342,732,342,732 C342,477,382,288,461,165 C540,42,661,-20,824,-20 C824,-20,824,-20,824,-20 C983,-20,1103,44,1186,173 C1186,173,1186,173,1186,173 C1268,302,1309,488,1309,732Z M510,732 C510,732,510,732,510,732 C510,944,535,1099,585,1196 C635,1293,715,1342,824,1342 C824,1342,824,1342,824,1342 C935,1342,1015,1293,1065,1194 C1065,1194,1065,1194,1065,1194 C1114,1095,1139,941,1139,732 C1139,523,1114,369,1065,270 C1065,270,1065,270,1065,270 C1015,173,935,124,824,124 C824,124,824,124,824,124 C715,124,635,172,585,268 C585,268,585,268,585,268 C535,365,510,519,510,732Z M857,726 C847,714,835,708,820,708 C805,708,793,714,783,726 C773,739,768,754,768,771 C768,788,773,803,783,816 C793,829,805,835,820,835 C835,835,847,829,857,816 C867,803,872,788,872,771 C872,754,867,739,857,726Z"/></g></svg>