<svg version="1.1" xmlns="http://www.w3.org/2000/svg" xmlns:xlink="http://www.w3.org/1999/xlink" width="2789" height="2789" viewBox="0,0,2789,2789"><g transform="translate(0,600)"><path d="M1811,0 C1811,0,1508,1096,1508,1096 C1508,1096,1311,1096,1311,1096 C1311,1096,1110,453,1110,453 C1101,424,1077,335,1039,185 C1039,185,1039,185,1039,185 C1039,185,1031,185,1031,185 C1003,306,980,396,961,455 C961,455,961,455,961,455 C961,455,754,1096,754,1096 C754,1096,562,1096,562,1096 C562,1096,263,0,263,0 C263,0,449,116,449,116 C476,218,505,320,537,421 C569,522,590,592,599,629 C599,629,599,629,599,629 C636,773,657,870,662,920 C662,920,662,920,662,920 C662,920,670,920,670,920 C677,883,689,833,706,772 C706,772,706,772,706,772 C723,711,737,663,748,629 C748,629,748,629,748,629 C748,629,966,58,966,58 C966,58,1117,121,1117,121 C1117,121,1325,629,1325,629 C1364,748,1389,845,1401,918 C1401,918,1401,918,1401,918 C1401,918,1409,918,1409,918 C1412,891,1420,854,1431,807 C1431,807,1431,807,1431,807 C1433,796,1439,775,1449,743 C1459,712,1477,648,1504,553 C1531,458,1562,339,1599,197 C1599,197,1599,197,1599,197 C1599,197,1622,110,1622,110 C1622,110,1811,0,1811,0Z"/></g></svg>