<svg version="1.1" xmlns="http://www.w3.org/2000/svg" xmlns:xlink="http://www.w3.org/1999/xlink" width="2789" height="2789" viewBox="0,0,2789,2789"><g transform="translate(0,600)"><path d="M1332,835 C1332,835,1332,1550,1332,1550 C1332,1550,1166,1550,1166,1550 C1166,1550,1166,841,1166,841 C1166,751,1146,684,1105,641 C1105,641,1105,641,1105,641 C1064,597,1001,575,914,575 C914,575,914,575,914,575 C799,575,715,606,662,669 C662,669,662,669,662,669 C609,732,582,835,582,977 C582,977,582,977,582,977 C582,977,663,1556,663,1556 C663,1556,566,1544,566,1544 C565,1524,564,1497,563,1462 C562,1427,558,1360,551,1259 C544,1158,536,1061,527,968 C518,875,504,770,487,654 C470,539,450,438,429,352 C429,352,429,352,429,352 C418,307,401,264,380,223 C359,182,337,149,315,122 C292,95,271,72,250,51 C229,31,212,17,199,8 C199,8,199,8,199,8 C199,8,179,-6,179,-6 C179,-6,582,-6,582,-6 C582,-6,582,465,582,465 C582,520,579,567,574,606 C574,606,574,606,574,606 C574,606,584,606,584,606 C617,553,663,512,724,481 C724,481,724,481,724,481 C784,451,853,436,930,436 C930,436,930,436,930,436 C973,436,1010,440,1040,448 C1069,456,1093,466,1110,477 C1127,489,1148,507,1174,531 C1174,531,1174,531,1174,531 C1279,632,1332,733,1332,835 C1332,835,1332,835,1332,835Z"/></g></svg>