<svg version="1.1" xmlns="http://www.w3.org/2000/svg" xmlns:xlink="http://www.w3.org/1999/xlink" width="2789" height="2789" viewBox="0,0,2789,2789"><g transform="translate(0,600)"><path d="M1114,246 C1114,246,1114,246,1114,246 C1078,285,1041,336,1003,401 C965,466,936,522,916,567 C916,567,916,567,916,567 C916,567,887,635,887,635 C887,635,1497,1462,1497,1462 C1497,1462,1297,1462,1297,1462 C1297,1462,816,718,816,718 C816,718,611,889,611,889 C611,889,611,1462,611,1462 C611,1462,337,1462,337,1462 C340,1459,345,1454,351,1448 C356,1442,366,1429,381,1408 C396,1388,409,1367,421,1345 C432,1324,443,1297,454,1264 C465,1231,471,1199,474,1166 C474,1166,474,1166,474,1166 C482,1011,484,847,479,674 C474,501,466,346,456,208 C456,208,456,208,456,208 C456,208,441,0,441,0 C466,33,500,61,542,84 C542,84,542,84,542,84 C559,93,579,102,602,110 C625,118,643,124,658,128 C658,128,658,128,658,128 C658,128,680,133,680,133 C680,133,611,725,611,725 C611,725,1274,0,1274,0 C1274,0,1475,0,1475,0 C1470,2,1462,5,1453,8 C1444,12,1425,21,1396,35 C1367,49,1339,65,1312,82 C1285,99,1253,123,1216,152 C1179,181,1145,213,1114,246Z"/></g></svg>