<svg version="1.1" xmlns="http://www.w3.org/2000/svg" xmlns:xlink="http://www.w3.org/1999/xlink" width="2789" height="2789" viewBox="0,0,2789,2789"><g transform="translate(0,600)"><path d="M770,1230 C770,1230,770,1230,770,1230 C801,1230,830,1228,855,1223 C855,1223,855,1223,855,1223 C864,1222,860,1229,842,1246 C842,1246,842,1246,842,1246 C838,1250,832,1256,823,1264 C823,1264,823,1264,823,1264 C808,1278,802,1285,804,1285 C804,1285,804,1285,804,1285 C804,1285,920,1210,920,1210 C920,1210,920,1337,920,1337 C902,1346,876,1353,841,1358 C841,1358,841,1358,841,1358 C806,1364,774,1367,746,1367 C746,1367,746,1367,746,1367 C534,1367,428,1255,428,1032 C428,1032,428,1032,428,1032 C428,1032,428,380,428,380 C428,380,271,380,271,380 C271,380,271,300,271,300 C271,300,428,231,428,231 C428,231,498,-3,498,-3 C498,-3,739,-20,739,-20 C729,-15,717,-9,702,-1 C687,8,664,24,633,48 C602,73,580,96,569,117 C569,117,569,117,569,117 C560,138,558,159,562,179 C565,199,571,216,580,230 C580,230,580,230,580,230 C580,230,594,251,594,251 C594,251,912,251,912,251 C912,251,912,380,912,380 C912,380,594,380,594,380 C594,380,594,1025,594,1025 C594,1091,610,1142,641,1177 C672,1212,715,1230,770,1230Z"/></g></svg>