<svg version="1.1" xmlns="http://www.w3.org/2000/svg" xmlns:xlink="http://www.w3.org/1999/xlink" width="2789" height="2789" viewBox="0,0,2789,2789"><g transform="translate(0,600)"><path d="M228,1462 C228,1462,228,1462,228,1462 C165,1462,116,1453,80,1435 C80,1435,80,1435,80,1435 C80,1435,86,1158,86,1158 C86,1158,184,966,184,966 C195,969,201,988,204,1025 C206,1062,206,1101,205,1143 C203,1185,204,1223,207,1258 C210,1293,217,1310,228,1310 C228,1310,228,1310,228,1310 C233,1310,246,1310,265,1310 C284,1311,298,1311,305,1310 C312,1310,323,1309,336,1307 C349,1306,360,1302,369,1297 C377,1292,384,1286,391,1279 C391,1279,391,1279,391,1279 C393,1276,396,1273,399,1269 C399,1269,399,1269,399,1269 C412,1255,422,1240,429,1225 C429,1225,429,1225,429,1225 C429,1224,430,1222,431,1220 C431,1220,431,1220,431,1220 C437,1207,442,1196,447,1187 C447,1187,447,1187,447,1187 C447,1187,488,1100,488,1100 C492,1074,497,1039,503,994 C508,949,516,865,526,742 C535,619,540,506,540,401 C540,401,540,401,540,401 C540,362,537,314,531,255 C525,197,522,151,522,117 C522,117,522,117,522,117 C522,72,517,24,507,-27 C497,-78,485,-123,471,-163 C457,-203,443,-240,429,-274 C415,-307,403,-333,393,-351 C393,-351,393,-351,393,-351 C393,-351,378,-379,378,-379 C378,-379,600,-385,600,-385 C600,-385,600,1063,600,1063 C600,1190,568,1288,504,1357 C504,1357,504,1357,504,1357 C440,1427,348,1462,228,1462Z"/></g></svg>