<svg version="1.1" xmlns="http://www.w3.org/2000/svg" xmlns:xlink="http://www.w3.org/1999/xlink" width="2789" height="2789" viewBox="0,0,2789,2789"><g transform="translate(0,600)"><path d="M572,995 C572,995,572,995,572,995 C572,995,580,995,580,995 C611,952,654,899,711,835 C711,835,711,835,711,835 C711,835,1025,593,1025,593 C1025,593,1262,460,1262,460 C1262,460,818,927,818,927 C818,927,1293,1556,1293,1556 C1293,1556,1092,1487,1092,1487 C1092,1487,705,1038,705,1038 C705,1038,580,1146,580,1146 C580,1146,545,1452,545,1452 C545,1452,416,1556,416,1556 C416,1556,416,0,416,0 C416,0,540,191,540,191 C540,191,580,825,580,825 C580,856,577,913,572,995Z"/></g></svg>