<svg version="1.1" xmlns="http://www.w3.org/2000/svg" xmlns:xlink="http://www.w3.org/1999/xlink" width="2789" height="2789" viewBox="0,0,2789,2789"><g transform="translate(0,600)"><path d="M529,1302 C529,1302,1327,1302,1327,1302 C1327,1302,1171,1462,1171,1462 C914,1427,722,1408,597,1407 C597,1407,597,1407,597,1407 C554,1407,515,1409,480,1412 C445,1415,419,1419,400,1424 C381,1429,365,1433,353,1438 C340,1443,332,1448,328,1451 C328,1451,328,1451,328,1451 C328,1451,322,1456,322,1456 C322,1456,322,1323,322,1323 C350,1292,387,1251,433,1200 C478,1149,553,1059,657,931 C760,803,842,693,902,602 C902,602,902,602,902,602 C937,550,967,499,993,448 C1019,398,1038,356,1051,321 C1064,286,1074,255,1082,228 C1089,201,1094,180,1096,167 C1096,167,1096,167,1096,167 C1096,167,1098,147,1098,147 C1098,147,346,147,346,147 C346,147,201,17,201,17 C201,17,1305,-6,1305,-6 C1305,-6,1305,127,1305,127 C1305,127,529,1302,529,1302Z"/></g></svg>