<svg version="1.1" xmlns="http://www.w3.org/2000/svg" xmlns:xlink="http://www.w3.org/1999/xlink" width="2789" height="2789" viewBox="0,0,2789,2789"><g transform="translate(0,600)"><path d="M1381,0 C1381,0,1551,0,1551,0 C1551,0,1551,1462,1551,1462 C1551,1462,1294,1462,1294,1462 C1294,1462,1381,774,1381,774 C1123,755,927,745,792,745 C792,745,792,745,792,745 C738,745,696,747,666,752 C636,757,619,762,616,767 C616,767,616,767,616,767 C616,767,611,774,611,774 C611,774,703,1462,703,1462 C703,1462,441,1462,441,1462 C441,1462,441,0,441,0 C441,0,611,0,611,0 C611,0,611,622,611,622 C842,661,1018,680,1139,680 C1139,680,1139,680,1139,680 C1177,680,1211,678,1242,674 C1272,670,1295,665,1312,659 C1329,654,1343,648,1354,642 C1365,637,1372,632,1376,628 C1376,628,1376,628,1376,628 C1376,628,1381,622,1381,622 C1381,622,1381,0,1381,0Z"/></g></svg>