<svg version="1.1" xmlns="http://www.w3.org/2000/svg" xmlns:xlink="http://www.w3.org/1999/xlink" width="2789" height="2789" viewBox="0,0,2789,2789"><g transform="translate(0,600)"><path d="M1084,849 C1084,849,1084,769,1084,769 C1084,769,1084,697,1084,697 C1084,697,1581,697,1581,697 C1581,697,1581,1408,1581,1408 C1508,1431,1430,1450,1345,1464 C1345,1464,1345,1464,1345,1464 C1267,1477,1174,1483,1067,1483 C1067,1483,1067,1483,1067,1483 C845,1483,673,1417,550,1285 C550,1285,550,1285,550,1285 C427,1154,365,969,365,732 C365,732,365,732,365,732 C365,581,396,447,457,332 C457,332,457,332,457,332 C518,218,606,131,720,70 C720,70,720,70,720,70 C835,10,970,-20,1123,-20 C1123,-20,1123,-20,1123,-20 C1282,-20,1429,9,1565,66 C1565,66,1565,66,1565,66 C1565,66,1559,66,1559,66 C1559,66,1054,71,1054,71 C1027,60,1025,54,1046,55 C1046,55,1046,55,1046,55 C1089,57,1159,70,1254,95 C1254,95,1254,95,1254,95 C1307,110,1332,119,1328,123 C1328,123,1328,123,1328,123 C1326,125,1320,126,1309,126 C1309,126,1309,126,1309,126 C1309,126,1112,132,1112,132 C1059,132,1010,136,967,145 C967,145,967,145,967,145 C857,167,766,216,695,291 C695,291,695,291,695,291 C595,397,545,544,545,732 C545,732,545,732,545,732 C545,858,564,964,603,1050 C603,1050,603,1050,603,1050 C626,1101,655,1144,690,1181 C690,1181,690,1181,690,1181 C786,1283,927,1334,1114,1334 C1114,1334,1114,1334,1114,1334 C1213,1334,1312,1322,1411,1299 C1411,1299,1411,1299,1411,1299 C1411,1299,1411,849,1411,849 C1411,849,1084,849,1084,849Z"/></g></svg>