<svg version="1.1" xmlns="http://www.w3.org/2000/svg" xmlns:xlink="http://www.w3.org/1999/xlink" width="2789" height="2789" viewBox="0,0,2789,2789"><g transform="translate(0,600)"><path d="M283,1503 C283,1503,283,1503,283,1503 C218,1503,167,1495,129,1478 C129,1478,129,1478,129,1478 C129,1478,123,1291,123,1291 C136,1294,158,1307,191,1329 C224,1352,248,1363,265,1363 C265,1363,265,1363,265,1363 C317,1363,355,1349,380,1320 C380,1320,380,1320,380,1320 C404,1292,416,1249,416,1191 C416,1191,416,1191,416,1191 C419,1177,422,1158,426,1133 C429,1108,435,1060,444,987 C453,914,460,843,465,774 C470,705,472,627,472,538 C471,450,466,371,457,301 C457,301,457,301,457,301 C452,259,441,217,425,175 C408,134,390,98,371,68 C351,38,332,11,313,-13 C294,-37,279,-55,266,-67 C266,-67,266,-67,266,-67 C266,-67,248,-85,248,-85 C248,-85,582,-85,582,-85 C582,-85,582,1179,582,1179 C582,1395,482,1503,283,1503Z M402,-382 C402,-382,402,-382,402,-382 C402,-420,411,-448,430,-466 C430,-466,430,-466,430,-466 C449,-483,473,-492,500,-492 C500,-492,500,-492,500,-492 C527,-492,550,-483,569,-465 C569,-465,569,-465,569,-465 C588,-447,598,-419,598,-382 C598,-345,588,-317,569,-299 C569,-299,569,-299,569,-299 C550,-280,527,-271,500,-271 C500,-271,500,-271,500,-271 C472,-271,449,-280,430,-299 C430,-299,430,-299,430,-299 C411,-317,402,-345,402,-382Z"/></g></svg>