<svg version="1.1" xmlns="http://www.w3.org/2000/svg" xmlns:xlink="http://www.w3.org/1999/xlink" width="2789" height="2789" viewBox="0,0,2789,2789"><g transform="translate(0,600)"><path d="M1979,450 C1979,450,1979,1165,1979,1165 C1979,1165,1813,1165,1813,1165 C1813,1165,1813,452,1813,452 C1813,365,1794,300,1757,255 C1757,255,1757,255,1757,255 C1720,212,1662,190,1583,190 C1583,190,1583,190,1583,190 C1480,190,1403,220,1354,279 C1305,338,1280,430,1280,553 C1280,553,1280,553,1280,553 C1280,553,1280,1165,1280,1165 C1280,1165,1114,1165,1114,1165 C1114,1165,1114,452,1114,452 C1114,365,1095,300,1058,255 C1058,255,1058,255,1058,255 C1021,212,962,190,883,190 C883,190,883,190,883,190 C779,190,703,221,655,283 C655,283,655,283,655,283 C606,346,582,448,582,590 C582,590,582,590,582,590 C582,590,582,1165,582,1165 C582,1165,416,1165,416,1165 C417,1160,419,1154,422,1145 C424,1136,428,1118,435,1091 C442,1064,448,1036,454,1007 C459,978,465,943,471,901 C477,859,482,818,485,777 C488,737,490,693,490,645 C490,597,487,551,482,507 C482,507,482,507,482,507 C477,460,466,410,451,358 C435,306,418,259,399,218 C380,177,362,140,345,106 C327,72,312,46,300,27 C300,27,300,27,300,27 C300,27,283,0,283,0 C283,0,551,69,551,69 C551,69,578,219,578,219 C578,219,586,219,586,219 C617,166,661,125,719,94 C719,94,719,94,719,94 C776,64,840,49,910,49 C910,49,910,49,910,49 C1081,49,1193,111,1246,235 C1246,235,1246,235,1246,235 C1246,235,1254,235,1254,235 C1288,177,1335,132,1396,99 C1396,99,1396,99,1396,99 C1459,66,1529,49,1608,49 C1608,49,1608,49,1608,49 C1732,49,1825,81,1887,144 C1887,144,1887,144,1887,144 C1948,209,1979,311,1979,450 C1979,450,1979,450,1979,450Z"/></g></svg>