<svg version="1.1" xmlns="http://www.w3.org/2000/svg" xmlns:xlink="http://www.w3.org/1999/xlink" width="2789" height="2789" viewBox="0,0,2789,2789"><g transform="translate(0,600)"><path d="M416,407 C416,407,582,407,582,407 C579,422,575,442,570,468 C565,494,559,542,552,613 C545,684,544,749,547,809 C547,809,547,809,547,809 C553,904,563,1009,577,1124 C590,1240,602,1332,612,1401 C612,1401,612,1401,612,1401 C612,1401,628,1503,628,1503 C628,1503,393,1503,393,1503 C442,1253,471,1024,482,815 C482,815,482,815,482,815 C485,752,482,686,471,618 C460,550,448,498,435,461 C435,461,435,461,435,461 C435,461,416,407,416,407Z M402,110 C402,110,402,110,402,110 C402,72,411,44,430,26 C430,26,430,26,430,26 C449,9,473,0,500,0 C500,0,500,0,500,0 C527,0,550,9,569,27 C569,27,569,27,569,27 C588,45,598,73,598,110 C598,147,588,175,569,193 C569,193,569,193,569,193 C550,212,527,221,500,221 C500,221,500,221,500,221 C472,221,449,212,430,193 C430,193,430,193,430,193 C411,175,402,147,402,110Z"/></g></svg>