<svg version="1.1" xmlns="http://www.w3.org/2000/svg" xmlns:xlink="http://www.w3.org/1999/xlink" width="2789" height="2789" viewBox="0,0,2789,2789"><g transform="translate(0,600)"><path d="M1725,243 C1725,243,1225,1537,1225,1537 C1225,1537,1088,1537,1088,1537 C1088,1537,592,241,592,241 C592,241,584,241,584,241 C593,348,598,470,598,607 C598,607,598,607,598,607 C598,607,708,1537,708,1537 C708,1537,441,1537,441,1537 C444,1525,447,1508,452,1486 C456,1465,463,1421,473,1354 C482,1287,490,1221,495,1155 C500,1089,501,1010,500,919 C499,828,492,743,480,663 C480,663,480,663,480,663 C471,601,456,535,435,466 C413,397,390,335,366,280 C342,226,319,176,296,130 C273,85,253,50,238,25 C238,25,238,25,238,25 C238,25,216,-12,216,-12 C216,-12,697,75,697,75 C697,75,1160,1281,1160,1281 C1160,1281,1168,1281,1168,1281 C1168,1281,1635,75,1635,75 C1635,75,2132,6,2132,6 C2125,15,2115,27,2103,43 C2090,59,2068,92,2036,142 C2003,192,1974,242,1948,293 C1921,344,1895,405,1870,476 C1845,548,1828,617,1821,683 C1821,683,1821,683,1821,683 C1812,766,1809,848,1810,929 C1811,1010,1816,1088,1825,1161 C1833,1234,1842,1299,1852,1354 C1861,1410,1870,1454,1878,1487 C1878,1487,1878,1487,1878,1487 C1878,1487,1889,1537,1889,1537 C1889,1537,1627,1549,1627,1549 C1627,1549,1719,595,1719,595 C1719,492,1724,375,1733,243 C1733,243,1733,243,1733,243 C1733,243,1725,243,1725,243Z"/></g></svg>