<svg version="1.1" xmlns="http://www.w3.org/2000/svg" xmlns:xlink="http://www.w3.org/1999/xlink" width="2789" height="2789" viewBox="0,0,2789,2789"><g transform="translate(0,600)"><path d="M1266,0 C1266,0,850,1096,850,1096 C850,1096,656,1096,656,1096 C656,1096,240,0,240,0 C240,0,395,92,395,92 C395,92,654,650,654,650 C709,806,740,905,748,946 C748,946,748,946,748,946 C748,946,756,946,756,946 C763,914,786,841,826,726 C826,726,826,726,826,726 C835,699,850,666,870,626 C890,586,917,528,950,453 C983,378,1020,287,1059,179 C1059,179,1059,179,1059,179 C1059,179,1088,110,1088,110 C1088,110,1266,0,1266,0Z"/></g></svg>