<svg version="1.1" xmlns="http://www.w3.org/2000/svg" xmlns:xlink="http://www.w3.org/1999/xlink" width="2789" height="2789" viewBox="0,0,2789,2789"><g transform="translate(0,600)"><path d="M934,-472 C934,-472,934,-472,934,-472 C934,-472,1411,-489,1411,-489 C1411,-489,1307,-367,1307,-367 C1307,-367,1110,-343,1110,-343 C1127,-322,1144,-292,1160,-252 C1160,-252,1160,-252,1160,-252 C1175,-215,1182,-172,1182,-124 C1182,-124,1182,-124,1182,-124 C1182,-17,1145,69,1072,133 C999,197,898,229,770,229 C770,229,770,229,770,229 C739,229,709,226,678,221 C678,221,678,221,678,221 C607,258,572,305,572,362 C572,362,572,362,572,362 C572,392,584,414,609,428 C609,428,609,428,609,428 C634,443,676,450,736,450 C736,450,736,450,736,450 C736,450,930,450,930,450 C1049,450,1140,475,1204,525 C1204,525,1204,525,1204,525 C1267,575,1299,648,1299,743 C1299,743,1299,743,1299,743 C1299,864,1250,957,1153,1020 C1153,1020,1153,1020,1153,1020 C1134,1032,1111,1042,1083,1049 C1055,1056,1021,1061,982,1063 C942,1065,907,1066,877,1066 C846,1067,805,1066,753,1065 C701,1064,663,1064,640,1064 C640,1064,640,1064,640,1064 C640,1064,727,1116,727,1116 C584,1116,473,1089,396,1036 C396,1036,396,1036,396,1036 C318,983,279,907,279,810 C279,810,279,810,279,810 C279,743,300,686,343,637 C343,637,343,637,343,637 C386,588,446,555,523,538 C523,538,523,538,523,538 C495,525,472,505,453,479 C453,479,453,479,453,479 C434,452,424,421,424,386 C424,386,424,386,424,386 C424,347,435,312,456,281 C456,281,456,281,456,281 C477,252,510,223,557,194 C557,194,557,194,557,194 C500,171,454,132,419,75 C419,75,419,75,419,75 C410,64,407,46,408,21 C409,-4,411,-26,416,-47 C421,-68,426,-92,432,-119 C437,-146,440,-166,440,-181 C440,-181,440,-181,440,-181 C440,-181,365,-117,365,-117 C365,-238,401,-330,473,-395 C473,-395,473,-395,473,-395 C544,-460,646,-492,779,-492 C779,-492,779,-492,779,-492 C835,-492,887,-485,934,-472Z M439,808 C439,808,439,808,439,808 C439,867,464,912,514,943 C514,943,514,943,514,943 C563,974,635,989,729,989 C729,989,729,989,729,989 C868,989,972,968,1039,926 C1039,926,1039,926,1039,926 C1106,885,1139,829,1139,757 C1139,757,1139,757,1139,757 C1139,697,1121,656,1084,633 C1047,610,978,599,877,599 C877,599,877,599,877,599 C877,599,678,599,678,599 C603,599,544,617,502,653 C460,689,439,741,439,808Z M529,-121 C529,-121,529,-121,529,-121 C529,-44,551,14,594,53 C637,92,698,112,775,112 C775,112,775,112,775,112 C937,112,1018,33,1018,-124 C1018,-124,1018,-124,1018,-124 C1018,-289,936,-371,772,-371 C772,-371,772,-371,772,-371 C694,-371,634,-350,592,-308 C550,-266,529,-204,529,-121Z"/></g></svg>