<svg version="1.1" xmlns="http://www.w3.org/2000/svg" xmlns:xlink="http://www.w3.org/1999/xlink" width="2789" height="2789" viewBox="0,0,2789,2789"><g transform="translate(0,600)"><path d="M1375,851 C1375,851,1381,107,1381,107 C1381,107,1545,-20,1545,-20 C1545,-20,1545,845,1545,845 C1545,1012,1495,1143,1394,1238 C1394,1238,1394,1238,1394,1238 C1293,1333,1154,1381,979,1381 C979,1381,979,1381,979,1381 C803,1381,667,1333,571,1237 C571,1237,571,1237,571,1237 C474,1141,426,1009,426,841 C426,841,426,841,426,841 C426,841,403,-20,403,-20 C403,-20,567,101,567,101 C567,101,596,853,596,853 C596,976,629,1069,696,1134 C696,1134,696,1134,696,1134 C734,1171,784,1204,847,1233 C910,1263,971,1278,1030,1278 C1030,1278,1030,1278,1030,1278 C1030,1278,990,1232,990,1232 C1113,1232,1208,1199,1275,1133 C1275,1133,1275,1133,1275,1133 C1342,1068,1375,974,1375,851 C1375,851,1375,851,1375,851Z"/></g></svg>