<svg version="1.1" xmlns="http://www.w3.org/2000/svg" xmlns:xlink="http://www.w3.org/1999/xlink" width="2789" height="2789" viewBox="0,0,2789,2789"><g transform="translate(0,600)"><path d="M1789,17 C1789,17,2108,0,2108,0 C2108,0,1902,1462,1902,1462 C1902,1462,1549,1462,1549,1462 C1549,1462,1254,483,1254,483 C1239,436,1223,382,1207,319 C1207,319,1207,319,1207,319 C1190,253,1181,213,1180,200 C1180,200,1180,200,1180,200 C1165,290,1141,386,1110,489 C1110,489,1110,489,1110,489 C1110,489,824,1462,824,1462 C824,1462,471,1462,471,1462 C471,1462,267,0,267,0 C267,0,615,6,615,6 C613,9,610,14,607,19 C603,25,596,37,585,55 C574,73,564,91,554,110 C544,129,533,153,520,181 C507,209,495,236,485,263 C474,290,464,319,455,351 C445,383,438,413,433,442 C428,471,425,501,425,532 C425,563,428,591,435,617 C435,617,435,617,435,617 C440,638,463,672,504,719 C544,767,583,810,621,847 C621,847,621,847,621,847 C621,847,678,903,678,903 C681,915,676,927,664,939 C652,952,638,963,622,972 C605,981,591,992,579,1004 C566,1016,561,1027,563,1038 C563,1038,563,1038,563,1038 C566,1053,578,1071,597,1091 C616,1111,637,1129,658,1145 C679,1162,699,1179,718,1198 C736,1217,746,1234,748,1247 C748,1247,748,1247,748,1247 C765,1128,792,1008,828,889 C828,889,828,889,828,889 C828,889,1090,0,1090,0 C1090,0,1270,0,1270,0 C1270,0,1545,897,1545,897 C1577,1000,1604,1116,1626,1247 C1626,1247,1626,1247,1626,1247 C1627,1238,1633,1231,1642,1226 C1651,1221,1663,1217,1678,1214 C1693,1211,1703,1208,1708,1205 C1708,1205,1708,1205,1708,1205 C1729,1194,1746,1183,1759,1174 C1772,1165,1785,1151,1799,1131 C1813,1111,1824,1086,1831,1057 C1831,1057,1831,1057,1831,1057 C1831,1057,1698,901,1698,901 C1703,899,1710,896,1719,893 C1728,890,1743,882,1766,869 C1789,857,1809,844,1828,831 C1847,818,1865,800,1883,779 C1900,758,1912,737,1918,715 C1918,715,1918,715,1918,715 C1930,660,1934,602,1930,540 C1926,479,1917,417,1902,354 C1887,292,1871,236,1854,186 C1837,136,1822,95,1809,64 C1809,64,1809,64,1809,64 C1809,64,1789,17,1789,17Z"/></g></svg>