<svg version="1.1" xmlns="http://www.w3.org/2000/svg" xmlns:xlink="http://www.w3.org/1999/xlink" width="2789" height="2789" viewBox="0,0,2789,2789"><g transform="translate(0,600)"><path d="M1270,1456 C1270,1456,916,848,916,848 C916,848,611,848,611,848 C611,848,605,1456,605,1456 C605,1456,377,1456,377,1456 C380,1445,385,1431,390,1412 C395,1393,405,1355,420,1298 C435,1241,448,1183,461,1126 C474,1069,487,1001,501,922 C514,843,525,769,532,699 C539,629,542,556,541,481 C540,406,534,339,523,282 C523,282,523,282,523,282 C516,245,505,210,490,179 C475,148,459,123,442,104 C425,85,406,68,387,53 C367,38,348,27,330,20 C312,13,296,8,281,3 C266,-1,255,-3,246,-4 C246,-4,246,-4,246,-4 C246,-4,233,-6,233,-6 C233,-6,842,-6,842,-6 C1022,-6,1155,28,1240,97 C1240,97,1240,97,1240,97 C1325,166,1368,270,1368,407 C1368,407,1368,407,1368,407 C1368,600,1270,731,1074,799 C1074,799,1074,799,1074,799 C1074,799,999,822,999,822 C1001,843,1020,900,1055,993 C1055,993,1055,993,1055,993 C1067,1024,1088,1061,1119,1104 C1150,1148,1183,1190,1219,1230 C1254,1271,1289,1309,1323,1344 C1357,1380,1385,1409,1408,1430 C1408,1430,1408,1430,1408,1430 C1408,1430,1442,1462,1442,1462 C1442,1462,1270,1456,1270,1456Z M832,143 C832,143,611,143,611,143 C611,143,611,702,611,702 C611,702,844,702,844,702 C964,702,1052,678,1108,630 C1108,630,1108,630,1108,630 C1164,583,1192,512,1192,416 C1192,416,1192,416,1192,416 C1192,319,1164,250,1107,207 C1050,164,959,143,832,143 C832,143,832,143,832,143Z"/></g></svg>