<svg version="1.1" xmlns="http://www.w3.org/2000/svg" xmlns:xlink="http://www.w3.org/1999/xlink" width="2789" height="2789" viewBox="0,0,2789,2789"><g transform="translate(0,600)"><path d="M1266,1074 C1266,1074,1266,1074,1266,1074 C1266,1203,1219,1303,1126,1375 C1126,1375,1126,1375,1126,1375 C1084,1406,1037,1431,985,1449 C985,1449,985,1449,985,1449 C984,1450,981,1450,978,1451 C974,1452,971,1453,969,1454 C969,1454,969,1454,969,1454 C968,1454,961,1442,946,1417 C931,1392,922,1380,921,1381 C921,1381,921,1381,921,1381 C918,1382,921,1395,928,1422 C935,1449,936,1462,933,1463 C933,1463,933,1463,933,1463 C876,1476,813,1483,746,1483 C746,1483,746,1483,746,1483 C746,1483,729,1419,729,1419 C688,1419,638,1422,581,1428 C523,1434,476,1437,441,1436 C405,1436,373,1429,346,1416 C346,1416,346,1416,346,1416 C346,1416,375,1102,375,1102 C388,1107,402,1121,417,1143 C431,1165,444,1188,455,1211 C466,1234,479,1256,495,1276 C510,1297,526,1309,542,1312 C542,1312,542,1312,542,1312 C611,1327,681,1334,752,1334 C752,1334,752,1334,752,1334 C865,1334,951,1312,1008,1269 C1065,1226,1094,1166,1094,1090 C1094,1090,1094,1090,1094,1090 C1094,1040,1084,998,1064,965 C1064,965,1064,965,1064,965 C1043,932,1009,903,962,876 C962,876,962,876,962,876 C915,849,842,818,744,783 C744,783,744,783,744,783 C607,734,510,676,453,610 C453,610,453,610,453,610 C394,543,365,456,365,349 C365,349,365,349,365,349 C365,282,379,224,408,175 C408,175,408,175,408,175 C408,175,530,192,530,192 C535,183,532,170,521,154 C510,138,500,125,491,114 C482,103,482,92,492,80 C492,80,492,80,492,80 C577,13,689,-20,828,-20 C828,-20,828,-20,828,-20 C973,-20,1106,7,1229,60 C1229,60,1229,60,1229,60 C1229,60,1176,324,1176,324 C1145,311,1107,288,1062,254 C1017,221,974,192,934,168 C894,144,857,132,824,132 C824,132,824,132,824,132 C734,132,664,151,613,190 C562,229,537,282,537,351 C537,351,537,351,537,351 C537,402,546,444,565,475 C565,475,565,475,565,475 C584,508,615,537,660,564 C660,564,660,564,660,564 C703,591,771,621,863,654 C863,654,863,654,863,654 C922,675,972,696,1015,717 C1015,717,1015,717,1015,717 C1088,753,1143,791,1180,830 C1180,830,1180,830,1180,830 C1237,893,1266,975,1266,1074Z"/></g></svg>