<svg version="1.1" xmlns="http://www.w3.org/2000/svg" xmlns:xlink="http://www.w3.org/1999/xlink" width="2789" height="2789" viewBox="0,0,2789,2789"><g transform="translate(0,600)"><path d="M1355,173 C1355,173,1583,75,1583,75 C1583,75,1583,1537,1583,1537 C1583,1537,1221,1381,1221,1381 C1221,1381,590,310,590,310 C590,310,582,310,582,310 C593,449,598,581,598,706 C598,706,598,706,598,706 C598,706,615,1404,615,1404 C615,1404,441,1537,441,1537 C441,1537,256,0,256,0 C256,0,633,75,633,75 C633,75,1430,1297,1430,1297 C1430,1297,1438,1297,1438,1297 C1437,1279,1434,1221,1429,1123 C1429,1123,1429,1123,1429,1123 C1424,1035,1423,965,1424,914 C1424,914,1424,914,1424,914 C1424,914,1355,173,1355,173Z"/></g></svg>