<svg version="1.1" xmlns="http://www.w3.org/2000/svg" xmlns:xlink="http://www.w3.org/1999/xlink" width="2789" height="2789" viewBox="0,0,2789,2789"><g transform="translate(0,600)"><path d="M1368,455 C1368,455,1368,455,1368,455 C1368,604,1318,717,1217,796 C1217,796,1217,796,1217,796 C1116,876,972,916,783,916 C783,916,783,916,783,916 C783,916,611,916,611,916 C611,916,761,1497,761,1497 C761,1497,441,1491,441,1491 C437,1488,432,1482,425,1475 C418,1468,405,1454,388,1431 C371,1409,356,1386,344,1362 C331,1338,321,1308,314,1271 C306,1235,305,1199,310,1162 C310,1162,310,1162,310,1162 C316,1119,332,1065,359,1000 C386,935,412,876,439,821 C465,767,487,707,506,640 C524,573,530,514,524,462 C524,462,524,462,524,462 C518,411,506,359,487,308 C468,257,448,214,426,177 C403,141,381,109,360,80 C339,51,321,30,306,15 C306,15,306,15,306,15 C306,15,285,-6,285,-6 C285,-6,623,23,623,23 C697,23,770,29,841,40 C912,52,979,70,1043,94 C1106,118,1162,147,1211,180 C1259,213,1297,254,1326,301 C1354,348,1368,400,1368,455Z M801,176 C801,176,611,176,611,176 C611,176,611,770,611,770 C611,770,764,770,764,770 C915,770,1024,746,1091,697 C1091,697,1091,697,1091,697 C1158,648,1192,570,1192,463 C1192,463,1192,463,1192,463 C1192,366,1160,294,1097,247 C1034,200,935,176,801,176 C801,176,801,176,801,176Z"/></g></svg>