<svg version="1.1" xmlns="http://www.w3.org/2000/svg" xmlns:xlink="http://www.w3.org/1999/xlink" width="2789" height="2789" viewBox="0,0,2789,2789"><g transform="translate(0,600)"><path d="M240,0 C240,0,420,92,420,92 C420,92,813,731,813,731 C813,731,1174,87,1174,87 C1174,87,1387,0,1387,0 C1372,17,1353,39,1329,67 C1304,96,1262,149,1203,227 C1143,305,1092,377,1050,442 C1050,442,1050,442,1050,442 C1010,505,972,571,937,642 C901,713,875,768,859,807 C859,807,859,807,859,807 C859,807,835,866,835,866 C828,951,830,1037,839,1126 C839,1126,839,1126,839,1126 C844,1174,852,1226,862,1282 C872,1338,881,1382,888,1414 C888,1414,888,1414,888,1414 C888,1414,899,1462,899,1462 C899,1462,727,1462,727,1462 C760,1345,782,1233,791,1126 C791,1126,791,1126,791,1126 C794,1080,795,1038,794,999 C792,961,789,930,785,905 C785,905,785,905,785,905 C785,905,779,868,779,868 C773,853,765,831,754,804 C743,777,719,726,683,652 C646,578,608,509,569,446 C569,446,569,446,569,446 C528,381,481,311,426,236 C371,162,327,104,292,62 C292,62,292,62,292,62 C292,62,240,0,240,0Z"/></g></svg>