<svg version="1.1" xmlns="http://www.w3.org/2000/svg" xmlns:xlink="http://www.w3.org/1999/xlink" width="2789" height="2789" viewBox="0,0,2789,2789"><g transform="translate(0,600)"><path d="M461,1032 C461,1032,279,1096,279,1096 C279,1096,680,535,680,535 C680,535,299,0,299,0 C299,0,482,69,482,69 C482,69,777,420,777,420 C777,420,1059,64,1059,64 C1059,64,1252,0,1252,0 C1252,0,871,535,871,535 C871,535,1272,1096,1272,1096 C1272,1096,1078,1032,1078,1032 C1078,1032,777,652,777,652 C777,652,461,1032,461,1032Z"/></g></svg>