<svg version="1.1" xmlns="http://www.w3.org/2000/svg" xmlns:xlink="http://www.w3.org/1999/xlink" width="2789" height="2789" viewBox="0,0,2789,2789"><g transform="translate(0,600)"><path d="M1608,723 C1608,723,1608,723,1608,723 C1608,965,1543,1149,1412,1276 C1412,1276,1412,1276,1412,1276 C1281,1404,1093,1468,846,1468 C846,1468,846,1468,846,1468 C846,1468,239,1474,239,1474 C248,1472,259,1469,274,1465 C289,1462,315,1454,352,1441 C389,1428,421,1415,450,1401 C478,1387,504,1369,527,1346 C550,1323,562,1300,562,1277 C562,1277,562,1277,562,1277 C562,1204,563,1044,565,796 C567,548,568,375,568,277 C568,277,568,277,568,277 C568,248,562,221,551,195 C540,170,525,148,507,129 C488,111,468,94,446,78 C423,62,401,49,379,39 C356,29,336,20,318,13 C299,6,284,1,273,-2 C273,-2,273,-2,273,-2 C273,-2,256,-6,256,-6 C256,-6,889,6,889,6 C1116,6,1293,69,1419,195 C1545,321,1608,497,1608,723Z M1428,729 C1428,729,1428,729,1428,729 C1428,539,1380,395,1285,298 C1285,298,1285,298,1285,298 C1189,201,1047,153,858,153 C858,153,858,153,858,153 C858,153,611,153,611,153 C611,153,611,1321,611,1321 C611,1321,818,1321,818,1321 C1021,1321,1173,1271,1275,1171 C1275,1171,1275,1171,1275,1171 C1377,1072,1428,924,1428,729Z"/></g></svg>