<svg version="1.1" xmlns="http://www.w3.org/2000/svg" xmlns:xlink="http://www.w3.org/1999/xlink" width="2789" height="2789" viewBox="0,0,2789,2789"><g transform="translate(0,600)"><path d="M1121,621 C1121,621,1121,621,1121,621 C1141,558,1157,487,1170,408 C1182,329,1189,267,1192,220 C1192,220,1192,220,1192,220 C1192,220,1195,150,1195,150 C1195,150,1459,0,1459,0 C1459,0,932,1462,932,1462 C932,1462,764,1462,764,1462 C764,1462,240,0,240,0 C240,0,512,121,512,121 C513,140,514,165,516,196 C517,228,524,284,535,365 C546,446,560,516,577,575 C577,575,577,575,577,575 C596,638,617,703,640,770 C663,838,682,890,696,926 C696,926,696,926,696,926 C696,926,716,981,716,981 C727,1012,750,1058,785,1117 C819,1177,840,1226,848,1263 C848,1263,848,1263,848,1263 C855,1232,861,1210,866,1198 C871,1187,877,1174,886,1159 C894,1145,903,1124,913,1096 C913,1096,913,1096,913,1096 C913,1096,994,952,994,952 C1041,850,1083,740,1121,621Z"/></g></svg>