<svg version="1.1" xmlns="http://www.w3.org/2000/svg" xmlns:xlink="http://www.w3.org/1999/xlink" width="2789" height="2789" viewBox="0,0,2789,2789"><g transform="translate(0,600)"><path d="M926,607 C926,607,926,607,926,607 C854,607,789,594,731,567 C731,567,731,567,731,567 C671,540,621,500,582,446 C582,446,582,446,582,446 C582,446,570,446,570,446 C578,510,582,571,582,628 C582,628,582,628,582,628 C582,628,669,1183,669,1183 C669,1183,485,1015,485,1015 C485,1015,277,-596,277,-596 C277,-596,551,-509,551,-509 C551,-509,574,-359,574,-359 C574,-359,582,-359,582,-359 C625,-419,674,-462,731,-489 C731,-489,731,-489,731,-489 C787,-516,852,-529,926,-529 C926,-529,926,-529,926,-529 C1071,-529,1184,-479,1263,-380 C1263,-380,1263,-380,1263,-380 C1342,-281,1381,-142,1381,38 C1381,38,1381,38,1381,38 C1381,219,1341,358,1261,457 C1261,457,1261,457,1261,457 C1180,557,1069,607,926,607Z M902,-388 C902,-388,902,-388,902,-388 C790,-388,709,-357,659,-295 C659,-295,659,-295,659,-295 C608,-232,583,-134,582,1 C582,1,582,1,582,1 C582,1,582,38,582,38 C582,191,608,301,659,368 C659,368,659,368,659,368 C710,435,792,468,906,468 C906,468,906,468,906,468 C1001,468,1075,430,1129,353 C1129,353,1129,353,1129,353 C1182,276,1209,170,1209,36 C1209,36,1209,36,1209,36 C1209,-101,1182,-206,1129,-279 C1129,-279,1129,-279,1129,-279 C1075,-352,999,-388,902,-388Z"/></g></svg>