<svg version="1.1" xmlns="http://www.w3.org/2000/svg" xmlns:xlink="http://www.w3.org/1999/xlink" width="2789" height="2789" viewBox="0,0,2789,2789"><g transform="translate(0,600)"><path d="M879,1116 C879,1116,879,1116,879,1116 C716,1116,589,1067,496,968 C496,968,496,968,496,968 C402,869,355,732,355,557 C355,557,355,557,355,557 C355,381,399,241,486,136 C486,136,486,136,486,136 C573,32,689,-20,836,-20 C836,-20,836,-20,836,-20 C973,-20,1082,25,1162,115 C1162,115,1162,115,1162,115 C1242,206,1282,326,1282,473 C1282,473,1282,473,1282,473 C1282,473,1276,514,1276,514 C1276,514,527,578,527,578 C530,706,562,804,625,871 C625,871,625,871,625,871 C686,938,772,971,885,971 C885,971,885,971,885,971 C965,971,1018,969,1044,964 C1044,964,1044,964,1044,964 C1077,957,1116,945,1160,926 C1160,926,1160,926,1160,926 C1160,926,1304,822,1304,822 C1304,822,1235,1045,1235,1045 C1176,1070,1120,1088,1069,1099 C1069,1099,1069,1099,1069,1099 C1014,1110,951,1116,879,1116Z M834,119 C834,119,834,119,834,119 C746,119,676,148,624,205 C624,205,624,205,624,205 C571,262,540,341,531,443 C531,443,531,443,531,443 C531,443,1104,443,1104,443 C1104,338,1081,257,1034,202 C1034,202,1034,202,1034,202 C987,147,920,119,834,119Z"/></g></svg>