<svg version="1.1" xmlns="http://www.w3.org/2000/svg" xmlns:xlink="http://www.w3.org/1999/xlink" width="2789" height="2789" viewBox="0,0,2789,2789"><g transform="translate(0,600)"><path d="M1319,1542 C1319,1542,1184,1542,1184,1542 C1184,1542,1162,1395,1162,1395 C1162,1395,1153,1395,1153,1395 C1076,1506,961,1562,809,1562 C809,1562,809,1562,809,1562 C666,1562,554,1513,475,1415 C475,1415,475,1415,475,1415 C395,1317,355,1178,355,997 C355,816,395,676,475,576 C555,476,666,426,809,426 C809,426,809,426,809,426 C958,426,1072,480,1151,588 C1151,588,1151,588,1151,588 C1151,588,1164,588,1164,588 C1164,588,1157,509,1157,509 C1157,509,1153,432,1153,432 C1153,432,1153,-14,1153,-14 C1153,-14,1637,-20,1637,-20 C1632,-19,1626,-17,1619,-15 C1612,-12,1597,-6,1575,3 C1552,12,1531,23,1510,34 C1489,45,1465,61,1438,80 C1411,100,1388,121,1367,143 C1346,165,1326,192,1309,223 C1292,255,1279,289,1272,324 C1272,324,1272,324,1272,324 C1255,410,1244,511,1241,626 C1238,741,1240,850,1248,953 C1256,1056,1265,1153,1276,1244 C1286,1335,1296,1408,1305,1462 C1305,1462,1305,1462,1305,1462 C1305,1462,1319,1542,1319,1542Z M830,1423 C830,1423,830,1423,830,1423 C943,1423,1026,1392,1077,1330 C1077,1330,1077,1330,1077,1330 C1128,1269,1153,1170,1153,1032 C1153,1032,1153,1032,1153,1032 C1153,1032,1153,997,1153,997 C1153,842,1127,731,1076,664 C1076,664,1076,664,1076,664 C1024,598,941,565,828,565 C828,565,828,565,828,565 C731,565,656,603,605,678 C605,678,605,678,605,678 C553,754,527,861,527,999 C527,999,527,999,527,999 C527,1139,553,1245,604,1316 C655,1387,731,1423,830,1423Z"/></g></svg>