<svg version="1.1" xmlns="http://www.w3.org/2000/svg" xmlns:xlink="http://www.w3.org/1999/xlink" width="2789" height="2789" viewBox="0,0,2789,2789"><g transform="translate(0,600)"><path d="M1067,132 C1067,132,1067,132,1067,132 C1067,132,1102,57,1102,57 C1029,57,955,80,881,127 C806,174,742,229,687,292 C687,292,687,292,687,292 C594,399,547,546,547,732 C547,732,547,732,547,732 C547,923,592,1071,682,1175 C682,1175,682,1175,682,1175 C771,1280,898,1332,1065,1332 C1065,1332,1065,1332,1065,1332 C1065,1332,1082,1401,1082,1401 C1120,1401,1176,1383,1251,1346 C1325,1310,1379,1287,1414,1277 C1414,1277,1414,1277,1414,1277 C1414,1277,1414,1426,1414,1426 C1313,1464,1188,1483,1039,1483 C1039,1483,1039,1483,1039,1483 C824,1483,658,1418,541,1287 C541,1287,541,1287,541,1287 C424,1156,365,970,365,730 C365,730,365,730,365,730 C365,579,393,447,450,334 C450,334,450,334,450,334 C507,220,588,133,694,72 C694,72,694,72,694,72 C727,53,752,39,771,32 C790,25,819,18,858,11 C858,11,858,11,858,11 C973,-10,1043,-20,1069,-20 C1069,-20,1069,-20,1069,-20 C1222,-20,1356,8,1471,64 C1471,64,1471,64,1471,64 C1471,64,1399,210,1399,210 C1288,158,1177,132,1067,132Z"/></g></svg>