<svg version="1.1" xmlns="http://www.w3.org/2000/svg" xmlns:xlink="http://www.w3.org/1999/xlink" width="2789" height="2789" viewBox="0,0,2789,2789"><g transform="translate(0,600)"><path d="M512,967 C512,967,1198,973,1198,973 C1198,973,1117,1096,1117,1096 C998,1065,871,1050,736,1050 C736,1050,736,1050,736,1050 C679,1050,616,1054,547,1061 C478,1069,423,1077,382,1084 C382,1084,382,1084,382,1084 C382,1084,322,1096,322,1096 C322,1096,322,983,322,983 C322,983,920,129,920,129 C920,129,359,129,359,129 C359,129,209,6,209,6 C209,6,1102,0,1102,0 C1102,0,1102,129,1102,129 C1097,132,1091,137,1083,142 C1074,148,1057,161,1032,182 C1007,203,982,224,958,247 C933,270,905,300,872,337 C839,374,809,411,782,450 C782,450,782,450,782,450 C738,513,694,587,649,673 C604,759,569,829,546,884 C546,884,546,884,546,884 C546,884,512,967,512,967Z"/></g></svg>