<svg version="1.1" xmlns="http://www.w3.org/2000/svg" xmlns:xlink="http://www.w3.org/1999/xlink" width="2789" height="2789" viewBox="0,0,2789,2789"><g transform="translate(0,600)"><path d="M951,1468 C951,1468,244,1462,244,1462 C251,1461,260,1460,271,1457 C282,1455,303,1449,333,1438 C363,1427,390,1414,415,1399 C440,1384,464,1362,489,1333 C514,1304,531,1271,541,1234 C541,1234,541,1234,541,1234 C573,1101,587,944,584,762 C581,580,564,426,533,301 C533,301,533,301,533,301 C526,272,511,242,490,211 C468,180,444,153,419,129 C393,105,368,83,343,63 C318,43,298,27,281,16 C281,16,281,16,281,16 C281,16,256,0,256,0 C256,0,854,6,854,6 C1047,6,1188,35,1275,93 C1275,93,1275,93,1275,93 C1362,151,1405,243,1405,368 C1405,368,1405,368,1405,368 C1405,455,1381,526,1333,582 C1333,582,1333,582,1333,582 C1284,639,1214,675,1121,692 C1121,692,1121,692,1121,692 C1121,692,1121,702,1121,702 C1343,740,1454,857,1454,1052 C1454,1052,1454,1052,1454,1052 C1454,1183,1410,1285,1322,1358 C1322,1358,1322,1358,1322,1358 C1233,1431,1109,1468,951,1468 C951,1468,951,1468,951,1468Z M861,153 C861,153,611,153,611,153 C611,153,611,632,611,632 C611,632,891,632,891,632 C1010,632,1097,613,1150,575 C1150,575,1150,575,1150,575 C1203,538,1229,475,1229,385 C1229,385,1229,385,1229,385 C1229,303,1200,244,1141,207 C1141,207,1141,207,1141,207 C1082,171,988,153,861,153 C861,153,861,153,861,153Z M902,776 C902,776,902,776,902,776 C902,776,611,776,611,776 C611,776,611,1323,611,1323 C611,1323,916,1323,916,1323 C1034,1323,1123,1300,1183,1254 C1183,1254,1183,1254,1183,1254 C1242,1209,1272,1137,1272,1040 C1272,1040,1272,1040,1272,1040 C1272,949,1242,883,1181,840 C1120,797,1027,776,902,776Z"/></g></svg>