<svg version="1.1" xmlns="http://www.w3.org/2000/svg" xmlns:xlink="http://www.w3.org/1999/xlink" width="2789" height="2789" viewBox="0,0,2789,2789"><g transform="translate(0,600)"><path d="M1213,346 C1213,346,1190,990,1190,990 C1190,990,1090,1094,1090,1094 C1090,1094,1057,938,1057,938 C1057,938,1049,938,1049,938 C994,1007,940,1053,886,1077 C886,1077,886,1077,886,1077 C832,1102,764,1114,682,1114 C682,1114,682,1114,682,1114 C573,1114,488,1086,427,1030 C427,1030,427,1030,427,1030 C365,974,334,894,334,791 C334,791,334,791,334,791 C334,788,338,792,347,804 C347,804,347,804,347,804 C372,838,384,855,385,856 C385,856,385,856,385,856 C387,857,388,857,388,856 C388,856,388,856,388,856 C410,637,483,511,608,477 C608,477,608,477,608,477 C682,457,768,446,865,443 C865,443,865,443,865,443 C865,443,1051,437,1051,437 C1051,437,1051,369,1051,369 C1051,282,1033,219,996,178 C959,137,900,117,818,117 C818,117,818,117,818,117 C726,117,623,145,508,201 C508,201,508,201,508,201 C508,201,330,155,330,155 C500,64,602,14,635,5 C635,5,635,5,635,5 C698,-12,762,-20,828,-20 C828,-20,828,-20,828,-20 C959,-20,1056,9,1119,67 C1119,67,1119,67,1119,67 C1182,125,1213,218,1213,346 C1213,346,1213,346,1213,346Z M715,977 C715,977,715,977,715,977 C819,977,900,949,959,892 C1018,835,1047,756,1047,654 C1047,654,1047,654,1047,654 C1047,654,1047,555,1047,555 C1047,555,881,562,881,562 C748,567,653,588,596,623 C596,623,596,623,596,623 C537,660,508,716,508,793 C508,793,508,793,508,793 C508,854,526,899,563,930 C563,930,563,930,563,930 C600,961,650,977,715,977Z"/></g></svg>