<svg version="1.1" xmlns="http://www.w3.org/2000/svg" xmlns:xlink="http://www.w3.org/1999/xlink" width="2789" height="2789" viewBox="0,0,2789,2789"><g transform="translate(0,600)"><path d="M623,668 C623,668,684,512,684,512 C684,512,225,-492,225,-492 C225,-492,426,-417,426,-417 C426,-417,660,35,660,35 C711,174,744,277,758,344 C758,344,758,344,758,344 C758,344,766,344,766,344 C776,307,794,248,821,169 C821,169,821,169,821,169 C826,154,830,138,834,122 C837,106,841,89,846,71 C850,54,862,14,882,-47 C902,-108,930,-187,965,-284 C965,-284,965,-284,965,-284 C965,-284,1011,-388,1011,-388 C1011,-388,1253,-486,1253,-486 C1253,-486,799,658,799,658 C752,783,697,870,636,920 C636,920,636,920,636,920 C573,972,497,998,406,998 C406,998,406,998,406,998 C357,998,307,992,256,981 C256,981,256,981,256,981 C256,981,83,900,83,900 C83,900,256,848,256,848 C293,856,334,860,379,860 C379,860,379,860,379,860 C493,860,574,796,623,668 C623,668,623,668,623,668Z"/></g></svg>