<svg version="1.1" xmlns="http://www.w3.org/2000/svg" xmlns:xlink="http://www.w3.org/1999/xlink" width="2789" height="2789" viewBox="0,0,2789,2789"><g transform="translate(0,600)"><path d="M1710,404 C1710,404,1710,404,1710,404 C1710,591,1672,746,1597,871 C1597,871,1597,871,1597,871 C1522,995,1416,1079,1278,1123 C1278,1123,1278,1123,1278,1123 C1278,1123,1626,1485,1626,1485 C1626,1485,1356,1329,1356,1329 C1356,1329,1094,1155,1094,1155 C1094,1155,1039,1157,1039,1157 C824,1157,658,1091,541,959 C541,959,541,959,541,959 C424,828,365,642,365,402 C365,402,365,402,365,402 C365,164,424,-21,541,-152 C541,-152,541,-152,541,-152 C658,-283,824,-348,1041,-348 C1041,-348,1041,-348,1041,-348 C1251,-348,1415,-281,1533,-148 C1533,-148,1533,-148,1533,-148 C1651,-15,1710,169,1710,404Z M545,404 C545,404,545,404,545,404 C545,603,587,753,672,854 C672,854,672,854,672,854 C756,957,878,1008,1039,1008 C1039,1008,1039,1008,1039,1008 C1201,1008,1323,957,1406,855 C1406,855,1406,855,1406,855 C1489,754,1530,603,1530,404 C1530,404,1530,404,1530,404 C1530,207,1489,58,1407,-44 C1407,-44,1407,-44,1407,-44 C1324,-145,1202,-196,1041,-196 C1041,-196,1041,-196,1041,-196 C879,-196,756,-145,672,-43 C672,-43,672,-43,672,-43 C587,60,545,209,545,404Z"/></g></svg>