<svg version="1.1" xmlns="http://www.w3.org/2000/svg" xmlns:xlink="http://www.w3.org/1999/xlink" width="2789" height="2789" viewBox="0,0,2789,2789"><g transform="translate(0,600)"><path d="M1332,433 C1332,433,1332,1148,1332,1148 C1332,1148,1166,1148,1166,1148 C1166,1148,1166,439,1166,439 C1166,349,1146,282,1105,239 C1105,239,1105,239,1105,239 C1064,195,1001,173,914,173 C914,173,914,173,914,173 C799,173,715,204,662,266 C662,266,662,266,662,266 C609,329,582,431,582,573 C582,573,582,573,582,573 C582,573,680,1154,680,1154 C680,1154,549,1148,549,1148 C550,1135,551,1116,552,1092 C553,1069,553,1023,554,954 C554,886,553,821,551,758 C548,695,543,625,534,547 C525,470,513,403,498,346 C498,346,498,346,498,346 C485,295,467,249,444,206 C421,163,399,129,377,104 C354,79,333,58,313,40 C292,23,275,11,262,4 C262,4,262,4,262,4 C262,4,243,-6,243,-6 C243,-6,551,52,551,52 C551,52,578,202,578,202 C578,202,586,202,586,202 C620,148,668,106,729,76 C729,76,729,76,729,76 C791,47,859,32,934,32 C934,32,934,32,934,32 C1065,32,1165,64,1232,127 C1232,127,1232,127,1232,127 C1299,191,1332,293,1332,433 C1332,433,1332,433,1332,433Z"/></g></svg>