<svg version="1.1" xmlns="http://www.w3.org/2000/svg" xmlns:xlink="http://www.w3.org/1999/xlink" width="2789" height="2789" viewBox="0,0,2789,2789"><g transform="translate(0,600)"><path d="M1710,732 C1710,732,1710,732,1710,732 C1710,966,1651,1150,1533,1284 C1533,1284,1533,1284,1533,1284 C1478,1345,1408,1386,1323,1407 C1238,1428,1133,1439,1010,1439 C1010,1439,1010,1439,1010,1439 C1010,1439,1039,1485,1039,1485 C824,1485,658,1419,541,1287 C541,1287,541,1287,541,1287 C424,1156,365,970,365,730 C365,730,365,730,365,730 C365,492,424,307,541,176 C541,176,541,176,541,176 C562,152,587,132,616,116 C644,100,670,88,694,80 C718,72,751,66,794,62 C837,58,870,56,894,55 C917,55,956,55,1010,55 C1010,55,1010,55,1010,55 C1029,55,1044,55,1053,55 C1053,55,1053,55,1053,55 C1053,55,1041,-20,1041,-20 C1251,-20,1415,47,1533,180 C1533,180,1533,180,1533,180 C1651,313,1710,497,1710,732Z M545,732 C545,732,545,732,545,732 C545,931,587,1081,672,1182 C672,1182,672,1182,672,1182 C756,1285,878,1336,1039,1336 C1039,1336,1039,1336,1039,1336 C1201,1336,1323,1285,1406,1183 C1406,1183,1406,1183,1406,1183 C1489,1082,1530,931,1530,732 C1530,732,1530,732,1530,732 C1530,535,1489,386,1407,284 C1407,284,1407,284,1407,284 C1324,183,1202,132,1041,132 C1041,132,1041,132,1041,132 C879,132,756,183,672,285 C672,285,672,285,672,285 C587,388,545,537,545,732Z"/></g></svg>