<svg version="1.1" xmlns="http://www.w3.org/2000/svg" xmlns:xlink="http://www.w3.org/1999/xlink" width="2789" height="2789" viewBox="0,0,2789,2789"><g transform="translate(0,600)"><path d="M1269,1040 C1269,1040,1269,1040,1269,1040 C1288,1089,1311,1138,1336,1185 C1361,1232,1385,1272,1408,1305 C1431,1338,1452,1367,1472,1392 C1491,1418,1507,1437,1518,1450 C1518,1450,1518,1450,1518,1450 C1518,1450,1536,1468,1536,1468 C1536,1468,1163,1468,1163,1468 C1163,1468,1178,1003,1178,1003 C1178,1003,592,1003,592,1003 C592,1003,614,1468,614,1468 C614,1468,240,1468,240,1468 C245,1462,251,1454,260,1443 C268,1433,284,1411,309,1377 C333,1344,356,1309,378,1274 C400,1239,425,1195,452,1143 C479,1092,503,1041,522,992 C522,992,522,992,522,992 C572,865,622,719,671,554 C720,389,757,255,782,153 C782,153,782,153,782,153 C782,153,818,0,818,0 C818,0,961,0,961,0 C972,46,986,107,1005,182 C1023,257,1059,387,1113,572 C1167,757,1219,913,1269,1040Z M824,397 C824,397,652,850,652,850 C652,850,1125,850,1125,850 C1125,850,955,397,955,397 C932,338,910,268,887,186 C887,186,887,186,887,186 C872,249,851,319,824,397 C824,397,824,397,824,397Z"/></g></svg>