<svg version="1.1" xmlns="http://www.w3.org/2000/svg" xmlns:xlink="http://www.w3.org/1999/xlink" width="2789" height="2789" viewBox="0,0,2789,2789"><g transform="translate(0,600)"><path d="M1379,0 C1379,0,926,692,926,692 C926,692,1275,1335,1275,1335 C1275,1335,1221,1462,1221,1462 C1221,1462,828,819,828,819 C828,819,428,1462,428,1462 C428,1462,393,1312,393,1312 C393,1312,734,698,734,698 C734,698,281,0,281,0 C281,0,469,98,469,98 C469,98,832,579,832,579 C832,579,1175,92,1175,92 C1175,92,1379,0,1379,0Z"/></g></svg>