<svg version="1.1" xmlns="http://www.w3.org/2000/svg" xmlns:xlink="http://www.w3.org/1999/xlink" width="2789" height="2789" viewBox="0,0,2789,2789"><g transform="translate(0,600)"><path d="M631,471 C631,471,910,471,910,471 C910,471,910,600,910,600 C910,600,631,600,631,600 C624,629,616,666,606,713 C596,760,585,837,572,944 C559,1051,556,1137,563,1201 C563,1201,563,1201,563,1201 C568,1250,578,1295,593,1338 C607,1381,622,1415,639,1441 C655,1467,671,1489,687,1508 C702,1527,715,1541,726,1549 C726,1549,726,1549,726,1549 C726,1549,741,1561,741,1561 C741,1561,465,1567,465,1567 C465,1567,465,600,465,600 C465,600,177,675,177,675 C177,675,269,525,269,525 C269,525,465,465,465,465 C465,465,465,404,465,404 C465,135,583,0,818,0 C818,0,818,0,818,0 C875,0,943,12,1022,35 C1022,35,1022,35,1022,35 C1022,35,1048,185,1048,185 C1015,174,973,164,923,153 C873,142,837,137,815,137 C815,137,815,137,815,137 C752,137,706,158,676,199 C676,199,676,199,676,199 C646,241,631,308,631,400 C631,400,631,400,631,400 C631,400,631,471,631,471Z"/></g></svg>