<svg version="1.1" xmlns="http://www.w3.org/2000/svg" xmlns:xlink="http://www.w3.org/1999/xlink" width="2789" height="2789" viewBox="0,0,2789,2789"><g transform="translate(0,600)"><path d="M916,44 C916,44,916,44,916,44 C964,44,1008,48,1047,56 C1047,56,1047,56,1047,56 C1047,56,1134,158,1134,158 C1117,154,1076,159,1012,173 C947,188,911,195,904,195 C904,195,904,195,904,195 C816,195,740,231,677,303 C677,303,677,303,677,303 C614,376,582,465,582,572 C582,572,582,572,582,572 C582,572,582,1160,582,1160 C582,1160,312,1154,312,1154 C316,1145,321,1133,328,1118 C334,1103,346,1073,363,1027 C380,981,395,935,409,889 C423,843,437,788,451,725 C465,662,475,603,480,547 C480,547,480,547,480,547 C484,496,485,446,483,399 C480,352,475,308,468,267 C461,226,453,191,446,161 C438,131,431,107,425,90 C425,90,425,90,425,90 C425,90,416,64,416,64 C416,64,593,0,593,0 C593,0,572,267,572,267 C572,267,580,267,580,267 C621,196,670,141,727,102 C727,102,727,102,727,102 C784,63,847,44,916,44Z"/></g></svg>