<svg version="1.1" xmlns="http://www.w3.org/2000/svg" xmlns:xlink="http://www.w3.org/1999/xlink" width="2789" height="2789" viewBox="0,0,2789,2789"><g transform="translate(0,600)"><path d="M1123,797 C1123,797,1123,797,1123,797 C1123,899,1085,978,1009,1033 C1009,1033,1009,1033,1009,1033 C986,1050,947,1060,892,1064 C837,1068,762,1068,668,1064 C574,1060,521,1058,510,1058 C510,1058,510,1058,510,1058 C510,1058,689,1116,689,1116 C543,1116,430,1093,349,1047 C349,1047,349,1047,349,1047 C349,1047,349,893,349,893 C402,920,459,941,519,956 C519,956,519,956,519,956 C580,971,638,979,693,979 C693,979,693,979,693,979 C779,979,846,965,893,937 C893,937,893,937,893,937 C940,910,963,868,963,811 C963,811,963,811,963,811 C963,768,945,732,908,701 C908,701,908,701,908,701 C871,671,798,635,691,594 C691,594,691,594,691,594 C588,556,516,523,474,494 C474,494,474,494,474,494 C431,466,399,434,378,398 C378,398,378,398,378,398 C357,361,346,318,346,269 C346,269,346,269,346,269 C346,180,382,109,455,57 C455,57,455,57,455,57 C472,45,497,36,532,31 C567,26,600,24,631,25 C662,26,701,27,749,29 C797,31,831,32,852,32 C852,32,852,32,852,32 C852,32,754,-20,754,-20 C871,-20,987,4,1100,52 C1100,52,1100,52,1100,52 C1100,52,1041,187,1041,187 C930,142,831,119,742,119 C742,119,742,119,742,119 C663,119,603,131,564,156 C564,156,564,156,564,156 C524,181,504,215,504,258 C504,258,504,258,504,258 C504,287,512,312,527,333 C527,333,527,333,527,333 C541,353,565,373,599,392 C599,392,599,392,599,392 C632,411,696,438,791,473 C791,473,791,473,791,473 C920,520,1008,567,1055,616 C1055,616,1055,616,1055,616 C1100,665,1123,725,1123,797Z"/></g></svg>