<svg version="1.1" xmlns="http://www.w3.org/2000/svg" xmlns:xlink="http://www.w3.org/1999/xlink" width="2789" height="2789" viewBox="0,0,2789,2789"><g transform="translate(0,600)"><path d="M611,1396 C611,1396,1077,1373,1077,1373 C1077,1373,1036,1554,1036,1554 C1036,1554,441,1548,441,1548 C441,1548,441,86,441,86 C441,86,1221,-6,1221,-6 C1221,-6,1268,243,1268,243 C1268,243,611,237,611,237 C611,237,611,708,611,708 C611,708,1171,650,1171,650 C1171,650,1246,864,1246,864 C1246,864,611,858,611,858 C611,858,611,1396,611,1396Z"/></g></svg>