<svg version="1.1" xmlns="http://www.w3.org/2000/svg" xmlns:xlink="http://www.w3.org/1999/xlink" width="2789" height="2789" viewBox="0,0,2789,2789"><g transform="translate(0,600)"><path d="M854,1116 C854,1116,854,1116,854,1116 C695,1116,573,1067,486,969 C486,969,486,969,486,969 C399,872,355,734,355,555 C355,555,355,555,355,555 C355,371,399,229,488,130 C488,130,488,130,488,130 C576,30,702,-20,865,-20 C865,-20,865,-20,865,-20 C916,-20,968,-14,1023,-3 C1023,-3,1023,-3,1023,-3 C1073,8,1114,21,1147,37 C1147,37,1147,37,1147,37 C1147,37,1223,184,1223,184 C1209,178,1167,170,1096,159 C1025,149,985,143,976,141 C976,141,976,141,976,141 C931,132,893,127,861,127 C861,127,861,127,861,127 C638,127,527,269,527,553 C527,553,527,553,527,553 C527,688,554,792,609,863 C609,863,609,863,609,863 C663,935,743,971,850,971 C850,971,850,971,850,971 C894,971,933,967,967,959 C1000,952,1042,938,1091,918 C1091,918,1091,918,1091,918 C1091,918,1229,785,1229,785 C1229,785,1131,1059,1131,1059 C1058,1097,965,1116,854,1116Z"/></g></svg>