<svg version="1.1" xmlns="http://www.w3.org/2000/svg" xmlns:xlink="http://www.w3.org/1999/xlink" width="2789" height="2789" viewBox="0,0,2789,2789"><g transform="translate(0,600)"><path d="M408,576 C408,576,408,576,408,576 C408,576,590,576,590,576 C590,576,605,599,605,599 C588,665,563,742,530,831 C530,831,530,831,530,831 C527,840,518,841,504,834 C489,827,480,827,476,836 C476,836,476,836,476,836 C469,855,461,896,453,958 C444,1020,436,1060,428,1078 C428,1078,428,1078,428,1078 C428,1078,211,1124,211,1124 C216,1105,240,1059,285,986 C329,913,355,858,363,821 C363,821,363,821,363,821 C384,720,399,638,408,576Z M387,-175 C387,-175,387,-175,387,-175 C387,-265,427,-310,506,-310 C506,-310,506,-310,506,-310 C588,-310,629,-265,629,-175 C629,-175,629,-175,629,-175 C629,-132,618,-98,596,-75 C574,-52,544,-40,506,-40 C506,-40,506,-40,506,-40 C467,-40,438,-52,418,-75 C418,-75,418,-75,418,-75 C397,-98,387,-131,387,-175Z"/></g></svg>